<?xml version="1.0" encoding="utf-8"?>
<!-- Generator: Adobe Illustrator 22.0.0, SVG Export Plug-In . SVG Version: 6.00 Build 0)  -->
<svg version="1.1" id="Layer_1" xmlns="http://www.w3.org/2000/svg" xmlns:xlink="http://www.w3.org/1999/xlink" x="0px" y="0px"
	 viewBox="0 0 1080 1080" style="enable-background:new 0 0 1080 1080;" xml:space="preserve">
<style type="text/css">
	.st0{fill:#133A7C;}
</style>
<g>
	<path class="st0" d="M410.7,463.6c-0.2-70.1,56.6-129.4,129.2-129.1c70.4,0.3,129.3,56.4,129,130c-0.3,72.2-58.9,128.6-130.1,128.2
		C465.8,592.2,410.2,532.2,410.7,463.6z M645.9,512.1c1.1-2.6,2-4.5,2.8-6.5c9.2-24.1,10.3-48.7,3.3-73.5
		c-12.6-44.9-52.2-81.2-104.3-84.9c-20.2-1.4-39.6,2.4-57.9,11.1c-43.8,20.8-70,66.3-66.2,114.8c0.9,11.7,3.6,23.1,8.1,34
		c0.6,1.4,1.4,2.6,2.1,3.8c7.8-0.5,39.4-6.2,43.5-7.9c0.5-3.5,0.5-7.3,2.3-10.6c1.8-3.4,4.2-6.3,7.7-7.7c3.4-1.4,7-2,10.7-3
		c0.2-0.9,0.4-1.8,0.5-2.7c0.5-4.7,0.9-9.3,1.3-14c0.2-2.3,0.4-4.6,2.6-6.3c2.6,1.2,4.2,3.5,6.4,5.1c2.3,1.7,3,3.8,2.9,6.6
		c-0.1,6.8,0,13.7,0,20.5c0,1.6,0.1,3.1,0.3,4.7c0.2,1.7,1.3,2.8,3,3.1c1,0.2,1.9,0.3,2.9,0.3c13.1,0,26.1,0,39.2,0c1,0,2,0,2.9-0.2
		c2-0.3,3.1-1.4,3.4-3.4c0.2-1.7,0.2-3.5,0.2-5.3c0-6.8,0-13.7,0-20.5c0-1.5-0.2-3.2,1.1-4.4c2.6-2.3,4.9-5,8.1-6.7
		c2.3,2,2.4,4.5,2.6,7c0.2,2.7,0.6,5.4,0.8,8.1c0.3,2.7,0.5,5.4,0.8,8.2c1.6,0.3,2.9,0.7,4.2,0.9c9.6,1.3,15.4,7.3,16.4,16.9
		c0.1,1.3,0.4,2.6,0.7,4.2C614.2,506.6,629.7,509.3,645.9,512.1z M486.4,518.4c-6.7-1.4-8.7-1.2-13.5,1.6c-6.7,4-13.4,7.9-20.1,11.9
		c-1.5,0.9-2.9,1.9-4.3,2.8c3.9,7.6,16.8,19.6,29.4,27.5c17.8,11.1,37.1,17.1,58,17.8c40.9,1.4,77.8-20.3,94.4-43.9
		c-3.5-2-7.1-4-10.6-6.1c-6.2-3.7-12.4-7.3-18.6-11c-2.7-1.6-5.4-2.1-8.2-0.7c-1.5,4,0.3,8.3-1.3,12.2c-3.2,1.3-6.3,0.9-9.3,0.5
		c-1.3-0.2-2.1-1.1-2.2-2.4c-0.2-1.5-0.1-3.1-0.2-4.7c-0.1-1.9-0.2-3.8-0.3-5.7c-2.4-1-4.6-0.7-6.7-0.7c-13.7,0-27.3,0-41,0
		c-9.2,0-18.3,0-27.5,0c-1.5,0-3,0.4-4.7,0.6c-0.1,2.5-0.1,4.6-0.2,6.7c0,1.4,0,2.7-0.2,4.1c-0.1,0.6-0.8,1.6-1.3,1.7
		c-3.6,0.8-7.2,1.5-10.5-0.7C486.3,526.1,487.7,522.1,486.4,518.4z M484.5,505c1.5,2.1,3.5,1.7,5.3,1.7c32,0,63.9,0,95.9,0
		c1.4,0,2.7,0,4.1-0.1c0.4,0,0.8-0.5,1.2-0.7c-0.1-0.4-0.2-0.7-0.3-0.7c-0.3-0.2-0.7-0.4-1-0.4c-34.1-0.1-68.2-0.1-102.3-0.1
		C486.4,504.5,485.5,504.8,484.5,505z M486.6,509.2c0.6,0.5,1,1.1,1.4,1.1c1.7,0.2,3.5,0.2,5.2,0.2c29.6,0,59.2,0,88.8,0
		c1.7,0,3.5-0.1,5.2-0.2c0.4,0,0.9-0.5,1.4-0.9c-0.5-0.4-0.7-0.8-1-0.8c-33.1-0.1-66.2-0.1-99.3-0.1
		C487.9,508.6,487.4,508.9,486.6,509.2z M643.6,516.5c-1.1-0.6-1.4-0.9-1.8-0.9c-13.8-3-27.7-6-41.5-9c-0.4-0.1-0.8-0.1-1.1,0.1
		c-0.3,0.1-0.7,0.4-0.8,0.7c-0.1,0.3,0,0.9,0.2,1c1,0.6,2,1.3,3,1.6c11.8,4,23.5,7.9,35.3,11.8c1,0.3,2.2,0.4,3.6,0.6
		C641.6,520.4,642.5,518.6,643.6,516.5z M439,521.2c0.9-0.1,1.3-0.1,1.6-0.3c11.4-3.8,22.8-7.6,34.2-11.4c0.5-0.2,1.1-0.4,1.5-0.8
		c0.4-0.3,0.8-1,0.7-1.4c-0.1-0.4-0.7-0.9-1.2-0.9c-0.7-0.1-1.5,0.1-2.3,0.3c-10.8,2.3-21.6,4.6-32.4,6.9c-1.6,0.4-3.3,0.9-5,1.4
		C436.1,517.8,437.4,519.4,439,521.2z M578.9,492.2c-2.6,0-4.8,2.1-4.8,4.8c0,2.7,2,4.9,4.7,4.9c2.6,0,4.9-2.2,4.9-4.8
		C583.7,494.6,581.4,492.3,578.9,492.2z M502.5,496.9c-0.1-2.7-2.3-4.8-5-4.6c-2.6,0.1-4.8,2.5-4.6,5c0.1,2.6,2.5,4.7,5.1,4.6
		C500.6,501.8,502.6,499.6,502.5,496.9z M486.7,494.1c-1.7,0.1-2.8,1.3-2.8,3c0,1.6,1.2,3,2.8,3c1.7,0.1,3.3-1.6,3.1-3.3
		C489.7,495.2,488.4,494.1,486.7,494.1z M592.6,497.1c0.1-1.6-1.1-2.9-2.7-3c-1.7-0.1-3,1-3.2,2.6c-0.2,1.7,1.4,3.4,3.1,3.3
		C591.3,500.1,592.6,498.8,592.6,497.1z"/>
	<path class="st0" d="M857.7,352.9c-1.7,2.6-3.1,4.8-4.6,7.1c-14.5,22-33.9,38.1-58.4,47.8c-19.8,7.8-39.8,14.9-59.7,22.2
		c-10.6,3.9-21.3,7.6-32,11.3c-5.7,2-11.3,4.4-16.6,7.2c-1.5,0.8-3.1,1.4-4.9,2.3c-0.4-1.2-0.9-2.1-1.1-3
		c-1.2-8.3-3.6-16.4-6.2-24.3c-1.5-4.4-2-5.1,2.9-8.7c7.4-5.5,15.6-9.5,24.3-12.5c11.1-3.9,22.5-6.3,34.1-8.1
		c13.1-2,26.2-3.7,39.3-5.7c28.9-4.5,55-15.5,78.3-33.3C854.4,354.3,855.4,352.9,857.7,352.9z"/>
	<path class="st0" d="M398.4,453.5c-1.2-0.4-1.9-0.6-2.6-1c-11.2-6.1-23-10.5-35-14.6c-21.4-7.3-42.8-14.6-64.1-22
		c-9.6-3.3-18.9-7.4-27.7-12.5c-15.5-8.8-28.5-20.3-38.8-34.9c-2.5-3.6-5.1-7.2-7.5-10.9c1.3-1,1.8-0.2,2.4,0.2
		c3.7,2.5,7.4,5,11.1,7.6c17.5,11.9,36.7,19.8,57.4,23.9c12.2,2.4,24.6,4,36.9,6c13.3,2.1,26.6,3.8,39.7,7.1
		c11.1,2.8,21.4,7.2,30.7,13.9c5.5,3.9,6.2,4.2,3.7,11c-2.3,6.2-3.9,12.7-4.9,19.2C399.4,448.7,399,450.7,398.4,453.5z"/>
	<path class="st0" d="M789.2,424.2c-0.5,0.9-1,1.9-1.7,2.7c-9.7,13.4-22.1,23.6-36.7,31.1c-6.1,3.1-12.3,5.9-18.6,8.4
		c-15.9,6.5-31.8,12.9-47.7,19.2c-1.1,0.4-2.2,0.7-3.7,1.1c-0.2-1.3-0.4-2.2-0.3-3c0.4-5.4,0.9-10.9,1.1-16.3
		c0.1-3.4,1.7-5.3,4.7-6.7c6.4-3,13-5.2,19.8-6.9c12.3-3.1,24.6-6.1,36.9-9.2c3-0.8,6-1.6,9-2.5c11.6-3.1,22.2-8.4,32-15.3
		c1.5-1.1,3.1-2.1,4.7-3.2C788.8,423.9,789,424.1,789.2,424.2z"/>
	<path class="st0" d="M398.8,489.2c-0.4,0-0.8,0.1-1.1,0c-15.6-6-31.3-12-46.9-18.1c-10.7-4.2-21.1-9.1-30.8-15.4
		c-9.6-6.1-18.3-13.2-25.4-22.2c-1.4-1.8-2.7-3.7-4.5-6.2c1.2,0.2,1.8,0.1,2.2,0.3c16.3,11.7,34.6,18.3,54,22.7
		c11.2,2.5,22.3,5.4,33.5,8c5.2,1.2,9.9,3.5,14.7,5.7c1.9,0.9,3.1,2.1,3.3,4.4c0.5,6.6,1.1,13.2,1.6,19.8
		C399.5,488.6,399.1,488.9,398.8,489.2z"/>
	<path class="st0" d="M669.4,521.4c2.3-6.8,4.7-12.6,7.1-18.3c1-2.2,2.7-3.7,4.7-5c4.8-3.1,10-5.3,15.4-6.8
		c8.8-2.4,17.7-4.5,26.6-6.8c3.2-0.8,6.4-1.7,9.6-2.5c9.6-2.4,18.3-6.4,26.4-12.1c0.7-0.5,1.5-1,2.4-1.5c0.7,1.4-0.2,2-0.8,2.8
		c-3.3,4.6-7.4,8.5-11.8,12.1c-7.5,6-15.7,10.9-24.5,14.6c-9.5,4.1-19.1,7.8-28.7,11.6c-8.1,3.2-16.4,6.3-23.9,10.8
		C671.6,520.7,671,520.8,669.4,521.4z"/>
	<path class="st0" d="M410.2,524.3c-13-8-26.2-12.2-39.1-17c-9.3-3.5-18.4-7.3-27.1-12.3c-7.5-4.2-14.5-9.1-20.4-15.4
		c-2.4-2.5-4.7-5.1-6.7-8.7c1.1,0.4,1.7,0.5,2.1,0.8c11.4,8.3,24.3,12.9,37.9,16.1c7,1.6,14,3.2,21,4.8c7.9,1.8,15.1,5.1,22,9.2
		c1.3,0.8,2.8,1.8,3.3,3.1C405.6,510.8,408.1,516.7,410.2,524.3z"/>
	<path class="st0" d="M514.4,409.8c15.9-0.5,30.8-0.2,46.1-0.3c1.1-1.8,0.5-4.2,0.6-6.5c0.2-2.7,0.2-5.3,0.8-8.1
		c1.3-5.5,4.6-8.8,9.4-11.1c1.4,3.9,1.4,3.9-0.8,6c-0.7,0.7-1.6,1.2-2.1,2c-0.5,1-1.2,2.3-0.9,3.2c1,3.7,0.5,7.4,0.6,11.1
		c0.1,4.5,0,9,0,13.5c0,3.1-0.1,6.2,1.1,9.2c0.4,0.9,0.4,1.9,0.4,2.9c0,7.8,0,15.6,0,23.2c-0.6,0.7-0.9,1.2-1.3,1.6
		c-6.7,6.2-6.7,6.2-16,6.2c-11.5,0-23-0.1-34.5,0.1c-3.2,0.1-5.6-0.8-7.8-3c-1.3-1.4-2.8-2.7-4.5-4.2c0-8.1,0-16.2,0-24.4
		c0-0.2,0-0.4,0-0.6c2.4-7.4,1-15.1,1.4-22.6c0.2-4.3-0.5-8.6,0.7-12.8c0.6-1.9-0.9-3.2-2.2-4.5c-2.6-2.5-2.6-2.6-2.1-6.8
		c4.5,2,8,4.6,9.3,9.6c0.8,2.9,1.3,5.7,1.2,8.6C514.2,404.5,514.3,407,514.4,409.8z M540.8,451.1c4.6,0.5,8.7,0.4,12.7,0.2
		c4.2-0.1,8.5,0.8,13-0.9c0-3,0.2-5.9,0-8.8c-0.3-3.6-2.4-5.7-6.1-5.8c-6.2-0.1-12.5,0.1-18.7,0.2c-0.3,0-0.6,0.4-1.3,0.9
		C540.3,441.3,539.9,445.9,540.8,451.1z M534.8,436c-7.1-0.3-13.7-0.3-20.3,0c-2.8,0.1-4.7,2-5.4,4.6c-0.5,2.1-0.1,7.4,0.8,10.6
		c3.9,0.5,8,0.3,12,0.2c4.2-0.1,8.5,0.7,12.8-0.7C535.5,445.9,535.4,441.3,534.8,436z M556.8,417.2c-0.1,1.7,1.4,3.5,3.1,3.4
		c1.4,0,2.9-1.4,3.1-2.9c0.2-1.7-1.4-3.4-3.1-3.4C558.4,414.3,556.9,415.6,556.8,417.2z M515.4,420.6c1.4,0.1,3-1.2,3.2-2.7
		c0.3-1.7-1.2-3.5-2.9-3.5c-1.5-0.1-3,1.2-3.2,2.7C512.2,418.7,513.7,420.5,515.4,420.6z M528.1,417.5c0-1.6-1.1-3-2.7-3.1
		c-1.8-0.2-3.4,1.3-3.5,3c0,1.7,1.6,3.3,3.4,3.2C526.8,420.5,528,419.1,528.1,417.5z M547.3,417.2c-0.1,1.8,1.4,3.5,3.1,3.4
		c1.4-0.1,2.9-1.4,3.1-2.9c0.2-1.7-1.4-3.3-3.1-3.4C548.8,414.3,547.4,415.6,547.3,417.2z"/>
	<path class="st0" d="M576.4,441.8c-1.2,2.6-0.7,5-0.8,7.3c-0.1,2.1,0,4.3,0,6.7c-2.1-0.2-3.1-1.2-3.2-2.9c-0.1-2.1-0.1-4.3-0.1-6.4
		c0-4.3,0-8.6,0-12.9c0-1.4,0.2-2.9-0.3-4.1c-2-4.9-1.5-10-1.5-15c0-2.9,0-5.8,0-8.8c0-1.3,0.3-2.7,0.4-3.9
		c11-2.1,18.8,3.8,19.6,14.4c0.1,1.2,0,2.3,0,3.5c0,18.9,0,37.8,0,56.7c0,1.9,0.4,3.8-0.7,5.8c-3.3-0.8-6.5-1.6-10-2.5
		c-1-2.5-1.1-5.5-1.4-8.3c-0.3-3.1-0.5-6.2-0.9-9.3c-0.2-1.3,0.1-2.3,1.4-2.8c2.7-1.2,3.6-3.4,3.6-6.2c0-2.3,0.1-4.7-0.3-7
		c-0.2-1.2-1.1-2.5-2.1-3.3C579.1,442.2,577.7,442.1,576.4,441.8z"/>
	<path class="st0" d="M500,455.6c-0.1-4.4-0.2-8.9-0.3-13.1c-1.7-1.1-3.1-0.7-4.2,0.2c-1,0.9-2.1,2.1-2.2,3.2
		c-0.3,3.1-0.3,6.2-0.1,9.3c0.1,2.7,2.6,3.6,4.7,5c-0.6,6.4-1.3,12.8-1.9,19.3c-3.5,0.9-6.8,1.8-10,2.7c-1.4-0.8-1.1-2.1-1.1-3.2
		c0-20.5-0.1-40.9,0-61.4c0-8,3.9-13.6,10.6-15.8c2.4-0.8,4-0.8,8.9-0.2c0.2,1.2,0.5,2.5,0.5,3.9c0.1,5.3,0.1,10.5,0,15.8
		c0,1.9-0.5,3.8-0.8,5.8c-0.3,2.3-0.9,4.6-1,6.9c-0.1,5.5,0,10.9-0.1,16.4c0,1,0,2-0.1,2.9C502.8,454.6,501.9,455.6,500,455.6z"/>
	<path class="st0" d="M537.4,494.4c-5.3,0-10.5,0.1-15.8,0c-3.6-0.1-4.7-1-4.8-4.4c-0.1-6.2-0.1-12.5,0-18.7c0.1-3,1.3-4,4.4-4.2
		c1.4-0.1,2.7,0,4.1,0c8.2,0,16.4,0,24.6,0c0.6,0,1.2,0,1.8,0c6.3,0.1,6.9,0.7,6.9,7.2c0,4.5,0,9,0,13.5c0,1,0,2-0.1,2.9
		c-0.3,2.8-1.3,3.8-4.2,3.8C548.7,494.5,543.1,494.4,537.4,494.4C537.4,494.4,537.4,494.4,537.4,494.4z M553.1,473.8
		c0-0.4-0.1-0.8-0.1-1.1c-0.9-0.1-1.9-0.4-2.8-0.4c-9,0-17.9,0.1-26.9,0.2c-0.3,0-0.6,0.4-0.9,0.6c0,1.4,1,1.6,1.9,1.6
		c9,0,17.9,0,26.9,0C551.9,474.5,552.5,474,553.1,473.8z M522.3,481.3c5.1,1,26.5,0.9,30.8-0.1c0-1.7-1.4-1.7-2.5-1.7
		c-8.6,0-17.1,0-25.7,0C523.9,479.6,522.9,479.5,522.3,481.3z M522.4,488c0.4,0.4,0.6,0.9,0.8,0.9c9.5,0.1,19,0.1,28.5,0.2
		c0.4,0,0.9-0.4,1.6-0.8c-0.8-0.5-1.2-1-1.6-1c-9.3,0-18.7,0-28,0C523.3,487.2,522.9,487.7,522.4,488z"/>
	<path class="st0" d="M558.7,401.4c0,2,0,3.3,0,4.9c-1,0.3-1.9,0.7-2.8,0.7c-12.1,0-24.2,0-36.3,0c-0.7,0-1.5-0.3-2.6-0.5
		c-0.1-1.5-0.3-3-0.4-4.5c0.8-0.4,1.3-0.9,1.8-0.9c3.9-0.1,7.8-0.1,11.7-0.1c7.6,0,15.2,0,22.8,0
		C554.7,401.1,556.4,401.3,558.7,401.4z"/>
</g>
<g>
	<path class="st0" d="M420.8,688.7V676l55.8-53.8l-0.3-0.3c-4,1.9-7.3,2.9-10,2.9h-8.8c-13.8,0-25.3-0.1-34.4-0.3V608h81.2v12.8
		l-55.4,53.4l0.3,0.3c3.9-1.8,7.2-2.8,9.8-2.8h12.3c13.3,0,24.3,0.1,33.1,0.3v16.6H420.8z"/>
	<path class="st0" d="M541.5,688.7c-7.1-0.3-12.4-2.3-16.1-6c-3.7-3.7-5.5-8.8-5.5-15.5c0-5.6,1.6-10.2,4.8-13.6
		c3.2-3.5,7.5-5.7,13-6.7c-3.8-1-6.8-3.1-8.9-6.2c-2.1-3.1-3.1-7.1-3.1-11.8c0-13.4,7.3-20.3,22-20.9c3.1-0.2,8.6-0.2,16.6-0.3
		c8,0,14.4,0,19.2,0.2c0.4,7.9,0.4,14.8,0.1,20.7h-17.5v-6.8h-13.2c-5.2,0-7.7,3.1-7.7,9.2c0,6.5,3.4,9.7,10.2,9.7h24.9v-8.2h19.5
		v8.2h16.8v13.7c-2.6,0.4-7.1,0.6-13.4,0.6h-6.9v0.3c2.3,1.6,3.5,4.2,3.5,7.7v4.7c0,4.1,2,6.1,6,6.1h10.8v14.3
		c-13.3,2.4-22.7,0.8-28.3-4.8c-3.6,3.2-7.6,5-12,5.3c-3.6,0.2-9.5,0.3-17.6,0.3C550.6,689,544.9,688.9,541.5,688.7z M550.8,673.7
		h21.7c5.1,0,7.7-2.5,7.7-7.4V655h-29.9c-3.3,0-5.7,0.8-7.2,2.3s-2.3,3.8-2.3,7C540.9,670.6,544.2,673.7,550.8,673.7z"/>
	<path class="st0" d="M633.9,688.7c-0.2-9-0.3-22.5-0.3-40.4c0-17.9,0.1-31.4,0.3-40.4h20.3c0.2,9,0.3,22.5,0.3,40.4
		c0,17.9-0.1,31.4-0.3,40.4H633.9z"/>
</g>
<g>
	<g>
		<path class="st0" d="M369.8,733.4c-0.1-2.8-0.1-6.9-0.1-12.3c0-3.5,0-6.3,0-8.2c-4.3,0-7.7,0-10.1-0.1v-4.5h25.6v4.5
			c-2.6,0.1-6,0.1-10.3,0.1h-1.3v0.1c1,0.5,1.5,1.4,1.5,2.6v5.5c0,5.4,0,9.5-0.1,12.3H369.8z"/>
		<path class="st0" d="M388.9,733.4c-0.1-2.8-0.1-7-0.1-12.6s0-9.8,0.1-12.6h25.9c0.1,1.3,0.1,3.7,0.1,7.3c0,1.6-0.3,2.9-1.1,3.9
			c-0.7,1-1.6,1.7-2.6,2.1c2.6,1.1,3.8,2.9,3.8,5.5c0,2.9,0,5,0,6.3h-5.4v-5.2c0-1-0.3-1.8-0.8-2.4c-0.5-0.6-1.4-0.9-2.5-0.9h-12.1
			v8.5H388.9z M394.3,722h0.1c0.6-1.1,1.6-1.7,3.1-1.7h8.3c2.4,0,3.6-1.2,3.6-3.7v-3.8h-15.1V722z"/>
		<path class="st0" d="M417.5,733.4l14.1-25.1h5l14.1,25.1h-6.2l-2.5-4.9h-15.7l-2.6,4.9H417.5z M439.5,723.9l-5.2-10.2h-0.4
			l-5.9,11.3l0.1,0c0.7-0.7,1.7-1.1,2.8-1.1H439.5z"/>
		<path class="st0" d="M453.4,733.4c-0.1-2.8-0.1-7-0.1-12.6s0-9.8,0.1-12.6h4.7l16.9,18.5l0.1-0.1c-0.7-1.1-1-2.1-1-3.3v-15.1h5.4
			c0.1,2.8,0.1,7,0.1,12.6s0,9.8-0.1,12.6h-4.7l-16.9-18.5l-0.1,0.1c0.6,1.1,1,2.1,1,3v15.4H453.4z"/>
		<path class="st0" d="M492.6,733.5c-5.8-0.2-8.7-2.8-8.7-7.9c0-0.2,0-0.4,0-0.6h5.4v0.6c0,2.2,1.2,3.2,3.7,3.2h9.2
			c1.1,0,1.9-0.3,2.4-0.8c0.5-0.6,0.8-1.3,0.8-2.1c0-2-1.1-3.1-3.2-3.1h-9.8c-5.2,0-7.8-2.5-7.9-7.5c0-2.6,0.1-5,0.3-7.2
			c3.2-0.1,6.8-0.2,10.8-0.2c4,0,6.2,0,6.8,0c2.6,0.1,4.5,0.8,5.6,2.1c1.2,1.3,1.8,2.8,1.9,4.6c0,0.3,0,0.7,0,1.3h-5.3v-0.6
			c0-1.9-1.1-2.9-3.2-2.9h-11.6v2.5c0,1.1,0.3,1.9,0.8,2.4c0.6,0.5,1.4,0.8,2.6,0.8h9.7c1.6,0,2.9,0.3,4,0.8c1.1,0.5,1.9,1.2,2.5,2
			c0.5,0.8,0.9,1.6,1.1,2.4c0.2,0.8,0.3,1.6,0.3,2.5c-0.1,2-0.7,3.7-2,5.2c-1.3,1.5-3.2,2.3-5.8,2.4c-0.9,0-2.6,0.1-5.1,0.1
			S493.6,733.5,492.6,733.5z"/>
		<path class="st0" d="M515.5,733.4c-0.1-2.8-0.1-7-0.1-12.6s0-9.8,0.1-12.6H540c0.1,1,0.1,3.6,0.2,8c0,2.6-0.7,4.7-2.2,6.3
			c-1.5,1.5-3.5,2.3-5.9,2.3h-11.2v8.5H515.5z M520.9,721.9h0.1c0.6-1.1,1.6-1.7,3.1-1.7h7.3c2.3,0,3.4-1.2,3.4-3.7l0-3.7h-13.8
			V721.9z"/>
		<path class="st0" d="M553.7,733.5c-2.8-0.1-5-0.9-6.6-2.4c-1.5-1.5-2.3-3.4-2.5-5.8c-0.1-2.6-0.1-8.3,0-17
			c9.9-0.2,16.2-0.3,18.9-0.1c2.8,0.1,5,0.9,6.5,2.4s2.3,3.4,2.4,5.8c0.1,2.6,0.1,5.6,0,8.9c-0.1,2.4-0.9,4.4-2.4,5.9
			c-1.5,1.5-3.7,2.3-6.5,2.4c-0.9,0-2.5,0-5,0S554.6,733.5,553.7,733.5z M554,728.8h9.3c2.6,0,3.9-1.5,3.9-4.4v-7.2
			c0-2.9-1.3-4.4-3.9-4.4h-13.1v11.6C550.1,727.3,551.4,728.8,554,728.8z"/>
		<path class="st0" d="M577.3,733.4c-0.1-2.8-0.1-7-0.1-12.6s0-9.8,0.1-12.6h25.9c0.1,1.3,0.1,3.7,0.1,7.3c0,1.6-0.3,2.9-1.1,3.9
			c-0.7,1-1.6,1.7-2.6,2.1c2.6,1.1,3.8,2.9,3.8,5.5c0,2.9,0,5,0,6.3h-5.4v-5.2c0-1-0.3-1.8-0.8-2.4c-0.5-0.6-1.4-0.9-2.5-0.9h-12.1
			v8.5H577.3z M582.7,722h0.1c0.6-1.1,1.6-1.7,3.1-1.7h8.3c2.4,0,3.6-1.2,3.6-3.7v-3.8h-15.1V722z"/>
		<path class="st0" d="M617,733.4c-0.1-2.8-0.1-6.9-0.1-12.3c0-3.5,0-6.3,0-8.2c-4.3,0-7.7,0-10.1-0.1v-4.5h25.6v4.5
			c-2.6,0.1-6,0.1-10.3,0.1h-1.3v0.1c1,0.5,1.5,1.4,1.5,2.6v5.5c0,5.4,0,9.5-0.1,12.3H617z"/>
		<path class="st0" d="M643.8,733.4c-0.1-2.8-0.1-7-0.1-12.6s0-9.8,0.1-12.6h5.4v22.3h0.1c0.3-0.7,0.7-1.3,1.1-1.5s1.1-0.4,2-0.4h4
			c4.2,0,7.6,0,10.1,0.1v4.6H643.8z"/>
		<path class="st0" d="M670.4,733.4c-0.1-2.8-0.1-7-0.1-12.6s0-9.8,0.1-12.6h5.4v22.3h0.1c0.3-0.7,0.7-1.3,1.1-1.5s1.1-0.4,2-0.4h4
			c4.2,0,7.6,0,10.1,0.1v4.6H670.4z"/>
		<path class="st0" d="M705.4,733.5c-2.9-0.1-5.2-1-6.7-2.4c-1.5-1.5-2.4-3.4-2.5-5.9c-0.2-3.9-0.1-9.5,0.1-17
			c9-0.2,15.2-0.3,18.4-0.1c5.1,0.2,7.7,2.8,7.9,8c0,0.3,0,0.7,0,1.4h-5.3v-1c0-1.3-0.3-2.2-0.8-2.9s-1.4-1-2.6-1h-12.2v11.8
			c0,2.9,1.4,4.3,4.1,4.3h7.9c2.5,0,3.7-1.3,3.7-3.8v-2.1h5.4v2.8c0,2.3-0.8,4.1-2.3,5.5c-1.5,1.4-3.7,2.1-6.6,2.3
			c-1,0-2.4,0.1-4.3,0.1C707.7,733.5,706.3,733.5,705.4,733.5z"/>
	</g>
</g>
<g>
	<g>
		<path class="st0" d="M396,750.9l-0.3,1.6h-5.7l-3.3,18.6h-2l3.3-18.6h-5.6l0.3-1.6H396z"/>
		<path class="st0" d="M402.4,756c1-0.6,2.2-0.9,3.6-0.9l-0.4,2.1H405c-1.4,0-2.6,0.4-3.6,1.1c-1,0.7-1.7,1.9-2.1,3.5l-1.7,9.4h-2
			l2.8-15.8h2l-0.6,3.2C400.6,757.4,401.4,756.6,402.4,756z"/>
		<path class="st0" d="M422.7,755.4l-2.8,15.8h-2l0.5-2.8c-0.7,1-1.5,1.7-2.6,2.3c-1,0.5-2.2,0.8-3.4,0.8c-1.6,0-2.9-0.4-3.9-1.3
			c-1-0.9-1.5-2.2-1.5-3.8c0-0.6,0-1.2,0.1-1.7l1.6-9.3h2l-1.6,9c-0.1,0.4-0.1,0.9-0.1,1.4c0,1.3,0.4,2.2,1.1,2.9
			c0.7,0.7,1.7,1,2.9,1c1.5,0,2.7-0.4,3.8-1.3c1.1-0.9,1.8-2.2,2.1-4l1.6-9H422.7z"/>
		<path class="st0" d="M426.7,759c0.9-1.2,2-2.2,3.2-2.8c1.3-0.7,2.7-1,4.1-1c2,0,3.5,0.5,4.6,1.5c1.1,1,1.7,2.3,1.8,3.9h-2.2
			c-0.1-1.1-0.5-2-1.3-2.7c-0.8-0.6-1.8-1-3.2-1c-1.6,0-3.1,0.6-4.3,1.7c-1.2,1.1-2.1,2.7-2.4,4.7c-0.1,0.5-0.1,1-0.1,1.7
			c0,1.5,0.4,2.7,1.3,3.6c0.8,0.8,2,1.2,3.3,1.2c1.4,0,2.5-0.3,3.5-1s1.7-1.6,2.2-2.7h2.2c-0.7,1.6-1.7,2.9-3.2,3.9
			c-1.4,1-3.1,1.5-5.1,1.5c-2,0-3.5-0.6-4.7-1.7c-1.2-1.1-1.8-2.7-1.8-4.6c0-0.6,0.1-1.2,0.2-1.9C425.3,761.6,425.9,760.2,426.7,759
			z"/>
		<path class="st0" d="M447.4,763.3l6.2,7.9h-2.8l-5.3-7.1l-1.2,7.1h-2l3.8-21.5h2l-2.3,12.7l7.7-7.1h2.8L447.4,763.3z"/>
		<path class="st0" d="M461,755.4l-2.8,15.8h-2l2.8-15.8H461z M459.7,752.1c-0.2-0.2-0.3-0.5-0.3-0.9c0-0.5,0.2-0.9,0.5-1.3
			c0.3-0.3,0.8-0.5,1.2-0.5c0.4,0,0.7,0.1,0.9,0.3c0.2,0.2,0.3,0.5,0.3,0.8c0,0.5-0.2,0.9-0.5,1.3s-0.8,0.5-1.2,0.5
			C460.2,752.4,459.9,752.3,459.7,752.1z"/>
		<path class="st0" d="M477,756.4c1,0.9,1.5,2.2,1.5,3.8c0,0.6,0,1.2-0.1,1.7l-1.7,9.3h-2l1.6-9c0.1-0.4,0.1-0.9,0.1-1.4
			c0-1.3-0.3-2.2-1-2.9c-0.7-0.7-1.7-1-2.9-1c-1.5,0-2.8,0.5-3.9,1.5c-1.1,1-1.8,2.4-2.1,4.3v-0.1l-1.5,8.7h-2l2.8-15.8h2l-0.5,2.7
			c0.7-1,1.5-1.7,2.6-2.2c1-0.5,2.2-0.8,3.4-0.8C474.8,755.1,476.1,755.5,477,756.4z"/>
		<path class="st0" d="M494.4,756.2c1,0.7,1.6,1.6,1.9,2.6l0.6-3.5h2l-2.8,16.2c-0.3,1.5-0.8,2.7-1.6,3.9c-0.8,1.1-1.9,2-3.1,2.6
			s-2.6,0.9-4,0.9c-2,0-3.6-0.5-4.8-1.5c-1.2-1-1.8-2.3-1.8-3.9h2c0.2,1.1,0.7,2,1.5,2.6s2,1,3.4,1c1.6,0,2.9-0.5,4.1-1.5
			c1.2-1,1.9-2.4,2.2-4.1l0.7-3.9c-0.7,1.1-1.6,2-2.8,2.7c-1.2,0.7-2.6,1.1-4.1,1.1c-1.9,0-3.4-0.6-4.6-1.7
			c-1.2-1.2-1.7-2.7-1.7-4.7c0-0.6,0.1-1.2,0.2-1.8c0.3-1.6,0.9-3,1.7-4.3c0.9-1.2,1.9-2.2,3.2-2.8s2.6-1,4.1-1
			C492.2,755.1,493.4,755.5,494.4,756.2z M495.6,761.8c0-1.5-0.5-2.7-1.4-3.6c-0.9-0.9-2.1-1.3-3.5-1.3c-1.1,0-2.2,0.3-3.1,0.8
			c-1,0.5-1.8,1.2-2.5,2.2c-0.7,1-1.1,2.1-1.4,3.4c-0.1,0.6-0.1,1.1-0.1,1.5c0,1.5,0.4,2.7,1.3,3.6s2.1,1.3,3.5,1.3
			c1.1,0,2.1-0.3,3.1-0.8c1-0.5,1.8-1.3,2.5-2.2c0.7-1,1.1-2.1,1.4-3.4C495.6,762.7,495.6,762.3,495.6,761.8z"/>
		<path class="st0" d="M514.1,755.4l-2.8,15.8h-2l2.8-15.8H514.1z M512.8,752.1c-0.2-0.2-0.3-0.5-0.3-0.9c0-0.5,0.2-0.9,0.5-1.3
			c0.3-0.3,0.8-0.5,1.2-0.5c0.4,0,0.7,0.1,0.9,0.3c0.2,0.2,0.3,0.5,0.3,0.8c0,0.5-0.2,0.9-0.5,1.3s-0.8,0.5-1.2,0.5
			C513.3,752.4,513,752.3,512.8,752.1z"/>
		<path class="st0" d="M517.3,770.3c-1-0.7-1.5-1.8-1.5-3.1c0-0.2,0-0.4,0-0.5h2c-0.1,0.9,0.2,1.7,0.8,2.2c0.6,0.6,1.5,0.8,2.7,0.8
			c1.2,0,2.2-0.3,2.9-0.8c0.7-0.5,1.1-1.2,1.1-2c0-0.5-0.2-0.9-0.5-1.3c-0.3-0.3-0.7-0.6-1.1-0.9c-0.5-0.2-1.1-0.5-1.9-0.8
			c-1-0.4-1.8-0.7-2.4-1c-0.6-0.3-1.1-0.8-1.6-1.3c-0.4-0.6-0.7-1.3-0.7-2.2s0.3-1.6,0.8-2.3c0.5-0.7,1.2-1.2,2.1-1.6
			c0.9-0.4,1.9-0.6,3-0.6c1.6,0,2.8,0.4,3.8,1.2c1,0.8,1.5,1.8,1.5,3.1c0,0.3,0,0.5,0,0.6h-1.9c0-0.1,0-0.2,0-0.4
			c0-0.9-0.3-1.5-1-2.1c-0.7-0.5-1.5-0.8-2.6-0.8s-1.9,0.2-2.6,0.7c-0.7,0.5-1,1.2-1,2c0,0.6,0.2,1,0.5,1.4c0.3,0.4,0.7,0.7,1.2,0.9
			c0.5,0.2,1.1,0.5,1.9,0.8c1,0.4,1.7,0.7,2.3,1c0.6,0.3,1.1,0.7,1.5,1.3c0.4,0.5,0.6,1.2,0.6,2c0,1.4-0.6,2.5-1.7,3.3
			c-1.1,0.8-2.6,1.2-4.4,1.2C519.6,771.4,518.3,771.1,517.3,770.3z"/>
		<path class="st0" d="M542.8,770.6c-1-0.5-1.8-1.3-2.3-2.3c-0.6-1-0.8-2.1-0.8-3.4c0-1.8,0.4-3.4,1.2-4.9c0.8-1.5,1.9-2.7,3.4-3.6
			s3.1-1.3,4.8-1.3c1.3,0,2.5,0.3,3.5,0.8c1,0.5,1.8,1.3,2.3,2.3c0.6,1,0.8,2.1,0.8,3.4c0,1.8-0.4,3.4-1.2,4.9
			c-0.8,1.5-2,2.7-3.4,3.6c-1.4,0.9-3,1.3-4.8,1.3C545,771.4,543.8,771.2,542.8,770.6z M550.2,768.6c1.1-0.7,1.9-1.7,2.6-2.9
			s0.9-2.5,0.9-3.9c0-1.6-0.5-2.8-1.4-3.6c-0.9-0.8-2.1-1.2-3.5-1.2c-1.4,0-2.6,0.4-3.7,1.1c-1.1,0.7-1.9,1.7-2.5,2.9
			s-0.9,2.5-0.9,3.9c0,1.6,0.5,2.8,1.4,3.6c0.9,0.8,2,1.3,3.4,1.3C547.9,769.7,549.1,769.4,550.2,768.6z"/>
		<path class="st0" d="M574.4,755.4l-2.8,15.8h-2l0.5-2.8c-0.7,1-1.5,1.7-2.6,2.3c-1,0.5-2.2,0.8-3.4,0.8c-1.6,0-2.9-0.4-3.9-1.3
			c-1-0.9-1.5-2.2-1.5-3.8c0-0.6,0-1.2,0.1-1.7l1.6-9.3h2l-1.6,9c-0.1,0.4-0.1,0.9-0.1,1.4c0,1.3,0.4,2.2,1.1,2.9s1.7,1,2.9,1
			c1.5,0,2.7-0.4,3.8-1.3s1.8-2.2,2.1-4l1.6-9H574.4z"/>
		<path class="st0" d="M583.1,756c1-0.6,2.2-0.9,3.6-0.9l-0.4,2.1h-0.6c-1.4,0-2.6,0.4-3.6,1.1c-1,0.7-1.7,1.9-2.1,3.5l-1.7,9.4h-2
			l2.8-15.8h2l-0.6,3.2C581.2,757.4,582,756.6,583.1,756z"/>
		<path class="st0" d="M608.4,761c-1.3,1.1-3.1,1.6-5.4,1.6h-4.1l-1.5,8.6h-2l3.6-20.3h6.1c2,0,3.5,0.4,4.5,1.2c1,0.8,1.5,2,1.5,3.4
			c0,0.4,0,0.9-0.1,1.2C610.6,758.5,609.7,759.9,608.4,761z M608.8,756.8c0.1-0.5,0.1-0.9,0.1-1.1c0-2.1-1.4-3.1-4.1-3.1h-4.1
			l-1.5,8.3h4.1C606.5,760.9,608.3,759.5,608.8,756.8z"/>
		<path class="st0" d="M613.9,759c0.9-1.2,1.9-2.2,3.2-2.8s2.6-1,4.1-1c1.5,0,2.7,0.3,3.7,1c1,0.7,1.6,1.6,1.9,2.7l0.6-3.5h2
			l-2.8,15.8h-2l0.6-3.5c-0.7,1.1-1.6,2-2.8,2.7c-1.2,0.7-2.6,1.1-4.1,1.1c-1.3,0-2.4-0.3-3.3-0.8c-0.9-0.5-1.7-1.3-2.2-2.2
			c-0.5-1-0.8-2.1-0.8-3.4c0-0.6,0.1-1.2,0.2-1.8C612.5,761.6,613,760.2,613.9,759z M626.1,761.8c0-1.5-0.5-2.7-1.4-3.6
			c-0.9-0.9-2.1-1.3-3.5-1.3c-1.1,0-2.2,0.3-3.1,0.8c-1,0.5-1.8,1.2-2.5,2.2s-1.1,2.1-1.4,3.4c-0.1,0.6-0.1,1.1-0.1,1.5
			c0,1.5,0.4,2.7,1.3,3.6c0.9,0.9,2.1,1.3,3.5,1.3c1.1,0,2.1-0.3,3.1-0.8c1-0.5,1.8-1.3,2.5-2.2s1.1-2.1,1.4-3.4
			C626.1,762.7,626.1,762.3,626.1,761.8z"/>
		<path class="st0" d="M632.6,770.3c-1-0.7-1.5-1.8-1.5-3.1c0-0.2,0-0.4,0-0.5h2c-0.1,0.9,0.2,1.7,0.8,2.2c0.6,0.6,1.5,0.8,2.7,0.8
			c1.2,0,2.2-0.3,2.9-0.8c0.7-0.5,1.1-1.2,1.1-2c0-0.5-0.2-0.9-0.5-1.3c-0.3-0.3-0.7-0.6-1.1-0.9c-0.5-0.2-1.1-0.5-1.9-0.8
			c-1-0.4-1.8-0.7-2.4-1c-0.6-0.3-1.1-0.8-1.6-1.3c-0.4-0.6-0.7-1.3-0.7-2.2s0.3-1.6,0.8-2.3c0.5-0.7,1.2-1.2,2.1-1.6
			c0.9-0.4,1.9-0.6,3-0.6c1.6,0,2.8,0.4,3.8,1.2c1,0.8,1.5,1.8,1.5,3.1c0,0.3,0,0.5,0,0.6h-1.9c0-0.1,0-0.2,0-0.4
			c0-0.9-0.3-1.5-1-2.1c-0.7-0.5-1.5-0.8-2.6-0.8s-1.9,0.2-2.6,0.7c-0.7,0.5-1,1.2-1,2c0,0.6,0.2,1,0.5,1.4c0.3,0.4,0.7,0.7,1.2,0.9
			c0.5,0.2,1.1,0.5,1.9,0.8c1,0.4,1.7,0.7,2.3,1c0.6,0.3,1.1,0.7,1.5,1.3c0.4,0.5,0.6,1.2,0.6,2c0,1.4-0.6,2.5-1.7,3.3
			c-1.1,0.8-2.6,1.2-4.4,1.2C635,771.4,633.6,771.1,632.6,770.3z"/>
		<path class="st0" d="M647.4,770.3c-1-0.7-1.5-1.8-1.5-3.1c0-0.2,0-0.4,0-0.5h2c-0.1,0.9,0.2,1.7,0.8,2.2c0.6,0.6,1.5,0.8,2.7,0.8
			c1.2,0,2.2-0.3,2.9-0.8c0.7-0.5,1.1-1.2,1.1-2c0-0.5-0.2-0.9-0.5-1.3c-0.3-0.3-0.7-0.6-1.1-0.9c-0.5-0.2-1.1-0.5-1.9-0.8
			c-1-0.4-1.8-0.7-2.4-1c-0.6-0.3-1.1-0.8-1.6-1.3c-0.4-0.6-0.7-1.3-0.7-2.2s0.3-1.6,0.8-2.3c0.5-0.7,1.2-1.2,2.1-1.6
			c0.9-0.4,1.9-0.6,3-0.6c1.6,0,2.8,0.4,3.8,1.2c1,0.8,1.5,1.8,1.5,3.1c0,0.3,0,0.5,0,0.6h-1.9c0-0.1,0-0.2,0-0.4
			c0-0.9-0.3-1.5-1-2.1c-0.7-0.5-1.5-0.8-2.6-0.8s-1.9,0.2-2.6,0.7c-0.7,0.5-1,1.2-1,2c0,0.6,0.2,1,0.5,1.4c0.3,0.4,0.7,0.7,1.2,0.9
			c0.5,0.2,1.1,0.5,1.9,0.8c1,0.4,1.7,0.7,2.3,1c0.6,0.3,1.1,0.7,1.5,1.3c0.4,0.5,0.6,1.2,0.6,2c0,1.4-0.6,2.5-1.7,3.3
			c-1.1,0.8-2.6,1.2-4.4,1.2C649.7,771.4,648.4,771.1,647.4,770.3z"/>
		<path class="st0" d="M665.7,755.4l-2.8,15.8h-2l2.8-15.8H665.7z M664.3,752.1c-0.2-0.2-0.3-0.5-0.3-0.9c0-0.5,0.2-0.9,0.5-1.3
			c0.3-0.3,0.8-0.5,1.2-0.5c0.4,0,0.7,0.1,0.9,0.3c0.2,0.2,0.3,0.5,0.3,0.8c0,0.5-0.2,0.9-0.5,1.3c-0.3,0.4-0.8,0.5-1.2,0.5
			C664.8,752.4,664.5,752.3,664.3,752.1z"/>
		<path class="st0" d="M671,770.6c-1-0.5-1.8-1.3-2.3-2.3s-0.8-2.1-0.8-3.4c0-1.8,0.4-3.4,1.2-4.9c0.8-1.5,1.9-2.7,3.4-3.6
			s3.1-1.3,4.8-1.3c1.3,0,2.5,0.3,3.5,0.8c1,0.5,1.8,1.3,2.3,2.3c0.6,1,0.8,2.1,0.8,3.4c0,1.8-0.4,3.4-1.2,4.9
			c-0.8,1.5-2,2.7-3.4,3.6c-1.4,0.9-3,1.3-4.8,1.3C673.1,771.4,672,771.2,671,770.6z M678.4,768.6c1.1-0.7,1.9-1.7,2.6-2.9
			s0.9-2.5,0.9-3.9c0-1.6-0.5-2.8-1.4-3.6c-0.9-0.8-2.1-1.2-3.5-1.2c-1.4,0-2.6,0.4-3.7,1.1c-1.1,0.7-1.9,1.7-2.5,2.9
			s-0.9,2.5-0.9,3.9c0,1.6,0.5,2.8,1.4,3.6c0.9,0.8,2,1.3,3.4,1.3C676.1,769.7,677.3,769.4,678.4,768.6z"/>
		<path class="st0" d="M700.3,756.4c1,0.9,1.5,2.2,1.5,3.8c0,0.6,0,1.2-0.1,1.7l-1.7,9.3h-2l1.6-9c0.1-0.4,0.1-0.9,0.1-1.4
			c0-1.3-0.3-2.2-1-2.9c-0.7-0.7-1.7-1-2.9-1c-1.5,0-2.8,0.5-3.9,1.5c-1.1,1-1.8,2.4-2.1,4.3v-0.1l-1.5,8.7h-2l2.8-15.8h2l-0.5,2.7
			c0.7-1,1.5-1.7,2.6-2.2c1-0.5,2.2-0.8,3.4-0.8C698,755.1,699.3,755.5,700.3,756.4z"/>
	</g>
</g>
</svg>
